<svg width="203" height="35" viewBox="0 0 203 35" fill="none" xmlns="http://www.w3.org/2000/svg">
<path d="M15.0322 3.71935C15.2918 2.72177 16.7082 2.72177 16.9678 3.71935L19.1558 12.1283C19.247 12.479 19.521 12.753 19.8717 12.8442L28.2807 15.0322C29.2782 15.2918 29.2782 16.7082 28.2806 16.9678L19.8717 19.1558C19.521 19.247 19.247 19.521 19.1558 19.8717L16.9678 28.2807C16.7082 29.2782 15.2918 29.2782 15.0322 28.2806L12.8442 19.8717C12.753 19.521 12.479 19.247 12.1283 19.1558L3.71935 16.9678C2.72177 16.7082 2.72177 15.2918 3.71935 15.0322L12.1283 12.8442C12.479 12.753 12.753 12.479 12.8442 12.1283L15.0322 3.71935Z" fill="#282828"/>
<path d="M54.6477 11.4205C54.5568 10.5038 54.1667 9.79167 53.4773 9.28409C52.7879 8.77651 51.8523 8.52273 50.6705 8.52273C49.8674 8.52273 49.1894 8.63636 48.6364 8.86364C48.0833 9.08333 47.6591 9.39015 47.3636 9.78409C47.0758 10.178 46.9318 10.625 46.9318 11.125C46.9167 11.5417 47.0038 11.9053 47.1932 12.2159C47.3902 12.5265 47.6591 12.7955 48 13.0227C48.3409 13.2424 48.7348 13.4356 49.1818 13.6023C49.6288 13.7614 50.1061 13.8977 50.6136 14.0114L52.7045 14.5114C53.7197 14.7386 54.6515 15.0417 55.5 15.4205C56.3485 15.7992 57.0833 16.2652 57.7045 16.8182C58.3258 17.3712 58.8068 18.0227 59.1477 18.7727C59.4962 19.5227 59.6742 20.3826 59.6818 21.3523C59.6742 22.7765 59.3106 24.0114 58.5909 25.0568C57.8788 26.0947 56.8485 26.9015 55.5 27.4773C54.1591 28.0455 52.5417 28.3295 50.6477 28.3295C48.7689 28.3295 47.1326 28.0417 45.7386 27.4659C44.3523 26.8902 43.2689 26.0379 42.4886 24.9091C41.7159 23.7727 41.3106 22.3674 41.2727 20.6932H46.0341C46.0871 21.4735 46.3106 22.125 46.7045 22.6477C47.1061 23.1629 47.6402 23.553 48.3068 23.8182C48.9811 24.0758 49.7424 24.2045 50.5909 24.2045C51.4242 24.2045 52.1477 24.0833 52.7614 23.8409C53.3826 23.5985 53.8636 23.2614 54.2045 22.8295C54.5455 22.3977 54.7159 21.9015 54.7159 21.3409C54.7159 20.8182 54.5606 20.3788 54.25 20.0227C53.947 19.6667 53.5 19.3636 52.9091 19.1136C52.3258 18.8636 51.6098 18.6364 50.7614 18.4318L48.2273 17.7955C46.2652 17.3182 44.7159 16.572 43.5795 15.5568C42.4432 14.5417 41.8788 13.1742 41.8864 11.4545C41.8788 10.0455 42.2538 8.81439 43.0114 7.76136C43.7765 6.70833 44.8258 5.88636 46.1591 5.29545C47.4924 4.70454 49.0076 4.40909 50.7045 4.40909C52.4318 4.40909 53.9394 4.70454 55.2273 5.29545C56.5227 5.88636 57.5303 6.70833 58.25 7.76136C58.9697 8.81439 59.3409 10.0341 59.3636 11.4205H54.6477ZM62.9006 28V10.5455H67.7415V28H62.9006ZM65.3324 8.29545C64.6127 8.29545 63.9953 8.05682 63.4801 7.57954C62.9725 7.0947 62.7188 6.51515 62.7188 5.84091C62.7188 5.17424 62.9725 4.60227 63.4801 4.125C63.9953 3.64015 64.6127 3.39773 65.3324 3.39773C66.0521 3.39773 66.6657 3.64015 67.1733 4.125C67.6884 4.60227 67.946 5.17424 67.946 5.84091C67.946 6.51515 67.6884 7.0947 67.1733 7.57954C66.6657 8.05682 66.0521 8.29545 65.3324 8.29545ZM71.6193 28V10.5455H76.233V13.625H76.4375C76.8011 12.6023 77.4072 11.7955 78.2557 11.2045C79.1042 10.6136 80.1193 10.3182 81.3011 10.3182C82.4981 10.3182 83.517 10.6174 84.358 11.2159C85.1989 11.8068 85.7595 12.6098 86.0398 13.625H86.2216C86.5777 12.625 87.2216 11.8258 88.1534 11.2273C89.0928 10.6212 90.2027 10.3182 91.483 10.3182C93.1117 10.3182 94.4337 10.8371 95.4489 11.875C96.4716 12.9053 96.983 14.3674 96.983 16.2614V28H92.1534V17.2159C92.1534 16.2462 91.8958 15.5189 91.3807 15.0341C90.8655 14.5492 90.2216 14.3068 89.4489 14.3068C88.5701 14.3068 87.8845 14.5871 87.392 15.1477C86.8996 15.7008 86.6534 16.4318 86.6534 17.3409V28H81.9602V17.1136C81.9602 16.2576 81.714 15.5758 81.2216 15.0682C80.7367 14.5606 80.0966 14.3068 79.3011 14.3068C78.7633 14.3068 78.2784 14.4432 77.8466 14.7159C77.4223 14.9811 77.0852 15.3561 76.8352 15.8409C76.5852 16.3182 76.4602 16.8788 76.4602 17.5227V28H71.6193ZM100.807 34.5455V10.5455H105.58V13.4773H105.795C106.008 13.0076 106.314 12.5303 106.716 12.0455C107.125 11.553 107.655 11.1439 108.307 10.8182C108.966 10.4848 109.784 10.3182 110.761 10.3182C112.034 10.3182 113.208 10.6515 114.284 11.3182C115.36 11.9773 116.22 12.9735 116.864 14.3068C117.508 15.6326 117.83 17.2955 117.83 19.2955C117.83 21.2424 117.515 22.8864 116.886 24.2273C116.265 25.5606 115.417 26.572 114.341 27.2614C113.273 27.9432 112.076 28.2841 110.75 28.2841C109.811 28.2841 109.011 28.1288 108.352 27.8182C107.701 27.5076 107.167 27.1174 106.75 26.6477C106.333 26.1705 106.015 25.6894 105.795 25.2045H105.648V34.5455H100.807ZM105.545 19.2727C105.545 20.3106 105.689 21.2159 105.977 21.9886C106.265 22.7614 106.682 23.3636 107.227 23.7955C107.773 24.2197 108.436 24.4318 109.216 24.4318C110.004 24.4318 110.67 24.2159 111.216 23.7841C111.761 23.3447 112.174 22.7386 112.455 21.9659C112.742 21.1856 112.886 20.2879 112.886 19.2727C112.886 18.2652 112.746 17.3788 112.466 16.6136C112.186 15.8485 111.773 15.25 111.227 14.8182C110.682 14.3864 110.011 14.1705 109.216 14.1705C108.428 14.1705 107.761 14.3788 107.216 14.7955C106.678 15.2121 106.265 15.803 105.977 16.5682C105.689 17.3333 105.545 18.2348 105.545 19.2727ZM125.898 4.72727V28H121.057V4.72727H125.898ZM137.73 28.3409C135.935 28.3409 134.389 27.9773 133.094 27.25C131.806 26.5152 130.813 25.4773 130.116 24.1364C129.42 22.7879 129.071 21.1932 129.071 19.3523C129.071 17.5568 129.42 15.9811 130.116 14.625C130.813 13.2689 131.795 12.2121 133.06 11.4545C134.332 10.697 135.825 10.3182 137.537 10.3182C138.688 10.3182 139.76 10.5038 140.753 10.875C141.753 11.2386 142.624 11.7879 143.366 12.5227C144.116 13.2576 144.7 14.1818 145.116 15.2955C145.533 16.4015 145.741 17.697 145.741 19.1818V20.5114H131.003V17.5114H141.185C141.185 16.8144 141.033 16.197 140.73 15.6591C140.427 15.1212 140.007 14.7008 139.469 14.3977C138.938 14.0871 138.321 13.9318 137.616 13.9318C136.882 13.9318 136.23 14.1023 135.662 14.4432C135.101 14.7765 134.662 15.2273 134.344 15.7955C134.026 16.3561 133.863 16.9811 133.855 17.6705V20.5227C133.855 21.3864 134.014 22.1326 134.332 22.7614C134.658 23.3902 135.116 23.875 135.707 24.2159C136.298 24.5568 136.999 24.7273 137.81 24.7273C138.348 24.7273 138.84 24.6515 139.287 24.5C139.734 24.3485 140.116 24.1212 140.435 23.8182C140.753 23.5152 140.995 23.1439 141.162 22.7045L145.639 23C145.412 24.0758 144.946 25.0152 144.241 25.8182C143.545 26.6136 142.643 27.2348 141.537 27.6818C140.438 28.1212 139.17 28.3409 137.73 28.3409ZM176.932 12.875H171.955C171.864 12.2311 171.678 11.6591 171.398 11.1591C171.117 10.6515 170.758 10.2197 170.318 9.86364C169.879 9.50757 169.371 9.23485 168.795 9.04545C168.227 8.85606 167.61 8.76136 166.943 8.76136C165.739 8.76136 164.689 9.06061 163.795 9.65909C162.902 10.25 162.208 11.1136 161.716 12.25C161.223 13.3788 160.977 14.75 160.977 16.3636C160.977 18.0227 161.223 19.4167 161.716 20.5455C162.216 21.6742 162.913 22.5265 163.807 23.1023C164.701 23.678 165.735 23.9659 166.909 23.9659C167.568 23.9659 168.178 23.8788 168.739 23.7045C169.307 23.5303 169.811 23.2765 170.25 22.9432C170.689 22.6023 171.053 22.1894 171.341 21.7045C171.636 21.2197 171.841 20.6667 171.955 20.0455L176.932 20.0682C176.803 21.1364 176.481 22.1667 175.966 23.1591C175.458 24.1439 174.773 25.0265 173.909 25.8068C173.053 26.5795 172.03 27.1932 170.841 27.6477C169.659 28.0947 168.322 28.3182 166.83 28.3182C164.754 28.3182 162.898 27.8485 161.261 26.9091C159.633 25.9697 158.345 24.6098 157.398 22.8295C156.458 21.0492 155.989 18.8939 155.989 16.3636C155.989 13.8258 156.466 11.6667 157.42 9.88636C158.375 8.10606 159.67 6.75 161.307 5.81818C162.943 4.87879 164.784 4.40909 166.83 4.40909C168.178 4.40909 169.428 4.59848 170.58 4.97727C171.739 5.35606 172.765 5.90909 173.659 6.63636C174.553 7.35606 175.28 8.23864 175.841 9.28409C176.409 10.3295 176.773 11.5265 176.932 12.875ZM184.665 4.72727L190.29 22.4091H190.506L196.142 4.72727H201.597L193.574 28H187.233L179.199 4.72727H184.665Z" fill="#282828"/>
</svg>
