<svg width="132" height="35" viewBox="0 0 132 35" fill="none" xmlns="http://www.w3.org/2000/svg">
<path d="M15.0322 3.71935C15.2918 2.72177 16.7082 2.72177 16.9678 3.71935L19.1558 12.1283C19.247 12.479 19.521 12.753 19.8717 12.8442L28.2807 15.0322C29.2782 15.2918 29.2782 16.7082 28.2806 16.9678L19.8717 19.1558C19.521 19.247 19.247 19.521 19.1558 19.8717L16.9678 28.2807C16.7082 29.2782 15.2918 29.2782 15.0322 28.2806L12.8442 19.8717C12.753 19.521 12.479 19.247 12.1283 19.1558L3.71935 16.9678C2.72177 16.7082 2.72177 15.2918 3.71935 15.0322L12.1283 12.8442C12.479 12.753 12.753 12.479 12.8442 12.1283L15.0322 3.71935Z" fill="#282828"/>
<path d="M54.6477 11.4205C54.5568 10.5038 54.1667 9.79167 53.4773 9.28409C52.7879 8.77651 51.8523 8.52273 50.6705 8.52273C49.8674 8.52273 49.1894 8.63636 48.6364 8.86364C48.0833 9.08333 47.6591 9.39015 47.3636 9.78409C47.0758 10.178 46.9318 10.625 46.9318 11.125C46.9167 11.5417 47.0038 11.9053 47.1932 12.2159C47.3902 12.5265 47.6591 12.7955 48 13.0227C48.3409 13.2424 48.7348 13.4356 49.1818 13.6023C49.6288 13.7614 50.1061 13.8977 50.6136 14.0114L52.7045 14.5114C53.7197 14.7386 54.6515 15.0417 55.5 15.4205C56.3485 15.7992 57.0833 16.2652 57.7045 16.8182C58.3258 17.3712 58.8068 18.0227 59.1477 18.7727C59.4962 19.5227 59.6742 20.3826 59.6818 21.3523C59.6742 22.7765 59.3106 24.0114 58.5909 25.0568C57.8788 26.0947 56.8485 26.9015 55.5 27.4773C54.1591 28.0455 52.5417 28.3295 50.6477 28.3295C48.7689 28.3295 47.1326 28.0417 45.7386 27.4659C44.3523 26.8902 43.2689 26.0379 42.4886 24.9091C41.7159 23.7727 41.3106 22.3674 41.2727 20.6932H46.0341C46.0871 21.4735 46.3106 22.125 46.7045 22.6477C47.1061 23.1629 47.6402 23.553 48.3068 23.8182C48.9811 24.0758 49.7424 24.2045 50.5909 24.2045C51.4242 24.2045 52.1477 24.0833 52.7614 23.8409C53.3826 23.5985 53.8636 23.2614 54.2045 22.8295C54.5455 22.3977 54.7159 21.9015 54.7159 21.3409C54.7159 20.8182 54.5606 20.3788 54.25 20.0227C53.947 19.6667 53.5 19.3636 52.9091 19.1136C52.3258 18.8636 51.6098 18.6364 50.7614 18.4318L48.2273 17.7955C46.2652 17.3182 44.7159 16.572 43.5795 15.5568C42.4432 14.5417 41.8788 13.1742 41.8864 11.4545C41.8788 10.0455 42.2538 8.81439 43.0114 7.76136C43.7765 6.70833 44.8258 5.88636 46.1591 5.29545C47.4924 4.70454 49.0076 4.40909 50.7045 4.40909C52.4318 4.40909 53.9394 4.70454 55.2273 5.29545C56.5227 5.88636 57.5303 6.70833 58.25 7.76136C58.9697 8.81439 59.3409 10.0341 59.3636 11.4205H54.6477ZM62.9006 34.5455V10.5455H67.6733V13.4773H67.8892C68.1013 13.0076 68.4081 12.5303 68.8097 12.0455C69.2188 11.553 69.7491 11.1439 70.4006 10.8182C71.0597 10.4848 71.8778 10.3182 72.8551 10.3182C74.1278 10.3182 75.3021 10.6515 76.3778 11.3182C77.4536 11.9773 78.3134 12.9735 78.9574 14.3068C79.6013 15.6326 79.9233 17.2955 79.9233 19.2955C79.9233 21.2424 79.6089 22.8864 78.9801 24.2273C78.3589 25.5606 77.5104 26.572 76.4347 27.2614C75.3665 27.9432 74.1695 28.2841 72.8438 28.2841C71.9044 28.2841 71.1051 28.1288 70.446 27.8182C69.7945 27.5076 69.2604 27.1174 68.8438 26.6477C68.4271 26.1705 68.1089 25.6894 67.8892 25.2045H67.7415V34.5455H62.9006ZM67.6392 19.2727C67.6392 20.3106 67.7831 21.2159 68.071 21.9886C68.3589 22.7614 68.7756 23.3636 69.321 23.7955C69.8665 24.2197 70.5294 24.4318 71.3097 24.4318C72.0975 24.4318 72.7642 24.2159 73.3097 23.7841C73.8551 23.3447 74.268 22.7386 74.5483 21.9659C74.8362 21.1856 74.9801 20.2879 74.9801 19.2727C74.9801 18.2652 74.84 17.3788 74.5597 16.6136C74.2794 15.8485 73.8665 15.25 73.321 14.8182C72.7756 14.3864 72.1051 14.1705 71.3097 14.1705C70.5218 14.1705 69.8551 14.3788 69.3097 14.7955C68.7718 15.2121 68.3589 15.803 68.071 16.5682C67.7831 17.3333 67.6392 18.2348 67.6392 19.2727ZM88.1278 28.3295C87.0142 28.3295 86.0218 28.1364 85.1506 27.75C84.2794 27.3561 83.59 26.7765 83.0824 26.0114C82.5824 25.2386 82.3324 24.2765 82.3324 23.125C82.3324 22.1553 82.5104 21.3409 82.8665 20.6818C83.2225 20.0227 83.7074 19.4924 84.321 19.0909C84.9347 18.6894 85.6316 18.3864 86.4119 18.1818C87.1998 17.9773 88.0256 17.8333 88.8892 17.75C89.9044 17.6439 90.7225 17.5455 91.3438 17.4545C91.965 17.3561 92.4157 17.2121 92.696 17.0227C92.9763 16.8333 93.1165 16.553 93.1165 16.1818V16.1136C93.1165 15.3939 92.8892 14.8371 92.4347 14.4432C91.9877 14.0492 91.3513 13.8523 90.5256 13.8523C89.6544 13.8523 88.9612 14.0455 88.446 14.4318C87.9309 14.8106 87.59 15.2879 87.4233 15.8636L82.946 15.5C83.1733 14.4394 83.6203 13.5227 84.2869 12.75C84.9536 11.9697 85.8134 11.3712 86.8665 10.9545C87.9271 10.5303 89.1544 10.3182 90.5483 10.3182C91.518 10.3182 92.446 10.4318 93.3324 10.6591C94.2263 10.8864 95.018 11.2386 95.7074 11.7159C96.4044 12.1932 96.9536 12.8068 97.3551 13.5568C97.7566 14.2992 97.9574 15.1894 97.9574 16.2273V28H93.3665V25.5795H93.2301C92.9498 26.125 92.5748 26.6061 92.1051 27.0227C91.6354 27.4318 91.071 27.7538 90.4119 27.9886C89.7528 28.2159 88.9915 28.3295 88.1278 28.3295ZM89.5142 24.9886C90.2263 24.9886 90.8551 24.8485 91.4006 24.5682C91.946 24.2803 92.3741 23.8939 92.6847 23.4091C92.9953 22.9242 93.1506 22.375 93.1506 21.7614V19.9091C92.9991 20.0076 92.7907 20.0985 92.5256 20.1818C92.268 20.2576 91.9763 20.3295 91.6506 20.3977C91.3248 20.4583 90.9991 20.5152 90.6733 20.5682C90.3475 20.6136 90.0521 20.6553 89.7869 20.6932C89.2188 20.7765 88.7225 20.9091 88.2983 21.0909C87.8741 21.2727 87.5445 21.5189 87.3097 21.8295C87.0748 22.1326 86.9574 22.5114 86.9574 22.9659C86.9574 23.625 87.196 24.1288 87.6733 24.4773C88.1581 24.8182 88.7718 24.9886 89.5142 24.9886ZM101.713 28V10.5455H106.406V13.5909H106.588C106.906 12.5076 107.44 11.6894 108.19 11.1364C108.94 10.5758 109.804 10.2955 110.781 10.2955C111.024 10.2955 111.285 10.3106 111.565 10.3409C111.846 10.3712 112.092 10.4129 112.304 10.4659V14.7614C112.077 14.6932 111.762 14.6326 111.361 14.5795C110.959 14.5265 110.592 14.5 110.259 14.5C109.546 14.5 108.91 14.6553 108.349 14.9659C107.796 15.2689 107.357 15.6932 107.031 16.2386C106.713 16.7841 106.554 17.4129 106.554 18.125V28H101.713ZM119.193 22.9773L119.205 17.1705H119.909L125.5 10.5455H131.057L123.545 19.3182H122.398L119.193 22.9773ZM114.807 28V4.72727H119.648V28H114.807ZM125.716 28L120.58 20.3977L123.807 16.9773L131.386 28H125.716Z" fill="black"/>
</svg>
